<svg width="8" height="8" viewBox="0 0 8 8" fill="none" xmlns="http://www.w3.org/2000/svg">
<path id="a" d="M3.318 7.21C2.506 7.21 1.85267 7.00467 1.358 6.594C0.872667 6.174 0.63 5.60933 0.63 4.9C0.63 4.15333 0.863333 3.57933 1.33 3.178C1.806 2.76733 2.478 2.562 3.346 2.562C4.27 2.562 5.054 2.74867 5.698 3.122V2.772C5.698 2.24 5.53467 1.848 5.208 1.596C4.89067 1.33467 4.38667 1.204 3.696 1.204C3.28533 1.204 2.884 1.246 2.492 1.33C2.10933 1.40467 1.764 1.512 1.456 1.652V0.504C1.736 0.373333 2.1 0.270666 2.548 0.196C2.996 0.112 3.43 0.0699995 3.85 0.0699995C4.96067 0.0699995 5.782 0.317333 6.314 0.812C6.85533 1.29733 7.126 1.974 7.126 2.842V7H5.796V6.244C5.50667 6.56133 5.16133 6.804 4.76 6.972C4.368 7.13067 3.88733 7.21 3.318 7.21ZM3.668 6.132C4.116 6.132 4.522 6.04333 4.886 5.866C5.25 5.68867 5.52067 5.44133 5.698 5.124V4.214C5.09133 3.822 4.41467 3.626 3.668 3.626C3.12667 3.626 2.72067 3.73333 2.45 3.948C2.18867 4.15333 2.058 4.47067 2.058 4.9C2.058 5.72133 2.59467 6.132 3.668 6.132Z" fill="url(#paint0_linear_1_14)"/>
<defs>
<linearGradient id="paint0_linear_1_14" x1="4" y1="-8" x2="4" y2="13" gradientUnits="userSpaceOnUse">
<stop/>
<stop offset="1" stop-opacity="0"/>
</linearGradient>
</defs>
</svg>
