<svg width="9" height="12" viewBox="0 0 9 12" fill="none" xmlns="http://www.w3.org/2000/svg">
<path id="d" d="M4.158 11.21C3.486 11.21 2.87933 11.0653 2.338 10.776C1.806 10.4773 1.386 10.062 1.078 9.53C0.779333 8.98867 0.63 8.36333 0.63 7.654C0.63 6.954 0.779333 6.33333 1.078 5.792C1.386 5.25067 1.806 4.83067 2.338 4.532C2.87933 4.224 3.486 4.07 4.158 4.07C5.37133 4.07 6.29067 4.43867 6.916 5.176V0.654H8.33V11H6.958V10.02C6.58467 10.4307 6.174 10.734 5.726 10.93C5.28733 11.1167 4.76467 11.21 4.158 11.21ZM4.48 10.09C5.05867 10.09 5.56267 9.94067 5.992 9.642C6.43067 9.334 6.73867 8.92333 6.916 8.41V6.898C6.75733 6.38467 6.454 5.974 6.006 5.666C5.56733 5.358 5.05867 5.204 4.48 5.204C4.02267 5.204 3.60733 5.30667 3.234 5.512C2.87 5.71733 2.58067 6.00667 2.366 6.38C2.16067 6.75333 2.058 7.178 2.058 7.654C2.058 8.13 2.16067 8.55467 2.366 8.928C2.58067 9.30133 2.87 9.59067 3.234 9.796C3.60733 9.992 4.02267 10.09 4.48 10.09Z" fill="url(#paint0_linear_1_15)"/>
<defs>
<linearGradient id="paint0_linear_1_15" x1="5" y1="-4" x2="5" y2="17" gradientUnits="userSpaceOnUse">
<stop/>
<stop offset="1" stop-opacity="0"/>
</linearGradient>
</defs>
</svg>
