<svg width="3" height="10" viewBox="0 0 3 10" fill="none" xmlns="http://www.w3.org/2000/svg">
<path id="i" d="M1.736 1.964C1.50267 1.964 1.30667 1.88467 1.148 1.726C0.989333 1.56733 0.91 1.37133 0.91 1.138C0.91 0.904666 0.989333 0.708666 1.148 0.55C1.30667 0.391333 1.50267 0.312 1.736 0.312C1.97867 0.312 2.17933 0.391333 2.338 0.55C2.506 0.708666 2.59 0.904666 2.59 1.138C2.59 1.37133 2.506 1.56733 2.338 1.726C2.17933 1.88467 1.97867 1.964 1.736 1.964ZM1.022 3.28H2.464V10H1.022V3.28Z" fill="url(#paint0_linear_1_10)"/>
<defs>
<linearGradient id="paint0_linear_1_10" x1="2" y1="-5" x2="2" y2="16" gradientUnits="userSpaceOnUse">
<stop/>
<stop offset="1" stop-opacity="0"/>
</linearGradient>
</defs>
</svg>
