<svg width="8" height="11" viewBox="0 0 8 11" fill="none" xmlns="http://www.w3.org/2000/svg">
<path id="S" d="M3.626 10.21C3.066 10.21 2.51067 10.1587 1.96 10.056C1.41867 9.96267 0.975333 9.832 0.63 9.664V8.376C1.526 8.796 2.492 9.006 3.528 9.006C4.984 9.006 5.712 8.516 5.712 7.536C5.712 7.2 5.63267 6.92933 5.474 6.724C5.31533 6.51867 5.08667 6.34133 4.788 6.192C4.48933 6.03333 4.004 5.81867 3.332 5.548C2.408 5.17467 1.74067 4.764 1.33 4.316C0.919333 3.868 0.714 3.30333 0.714 2.622C0.714 2.10867 0.854 1.656 1.134 1.264C1.414 0.862666 1.806 0.554666 2.31 0.339999C2.814 0.115999 3.39267 0.00399935 4.046 0.00399935C4.578 0.00399935 5.05867 0.0459994 5.488 0.129999C5.91733 0.213999 6.33733 0.349333 6.748 0.535999V1.768C5.936 1.404 5.11467 1.222 4.284 1.222C3.612 1.222 3.09867 1.34333 2.744 1.586C2.38933 1.82867 2.212 2.174 2.212 2.622C2.212 2.93 2.28667 3.19133 2.436 3.406C2.59467 3.61133 2.82333 3.798 3.122 3.966C3.43 4.12467 3.88267 4.32533 4.48 4.568C5.14267 4.83867 5.66533 5.09533 6.048 5.338C6.43067 5.58067 6.72 5.87933 6.916 6.234C7.12133 6.57933 7.224 7.01333 7.224 7.536C7.224 8.38533 6.92067 9.04333 6.314 9.51C5.70733 9.97667 4.81133 10.21 3.626 10.21Z" fill="url(#paint0_linear_1_7)"/>
<defs>
<linearGradient id="paint0_linear_1_7" x1="4" y1="-5" x2="4" y2="16" gradientUnits="userSpaceOnUse">
<stop/>
<stop offset="1" stop-opacity="0"/>
</linearGradient>
</defs>
</svg>
